# xmcd
#
# Track frame offsets:
#	150
#	76472
#	91656
#	109913
#	130863
#	153277
#	171603
#	191650
#	209513
#	225692
#	242051
#	258200
#	279214
#
# Disc length: 4053 seconds
#
# Revision: 0
# Processed by: cddbd v1.5.1PL0 Copyright (c) Steve Scherf et al.
# Submitted via: dBpowerAMP V4.0
#
DISCID=ac0fd30d
DTITLE=Anastacia - Not that Kind
DYEAR=1900
DGENRE=Blues
TTITLE0=DATA
TTITLE1=Not that Kind
TTITLE2=I'm outa love
TTITLE3=Cowboys and Kisses
TTITLE4=Who's gonna stop the rain?
TTITLE5=Love is alive
TTITLE6=I ask of you
TTITLE7=Wishing Well
TTITLE8=Made for Lovin' you
TTITLE9=Black Roses
TTITLE10=Yo trippin'
TTITLE11=One more chance
TTITLE12=Same old Story
EXTD=
EXTT0=
EXTT1=
EXTT2=
EXTT3=
EXTT4=
EXTT5=
EXTT6=
EXTT7=
EXTT8=
EXTT9=
EXTT10=
EXTT11=
EXTT12=
PLAYORDER=
